<svg xmlns="http://www.w3.org/2000/svg" width="600" height="400" viewBox="0 0 600 400"><rect width="100%" height="100%" fill="#E0F2F7"/><path fill="#000000" d="M150.55 201.195h16.58q6.11 0 10.65-1.52 4.53-1.53 7.55-4.38 3.01-2.84 4.49-6.93 1.49-4.08 1.49-9.11 0-4.79-1.49-8.66-1.48-3.88-4.45-6.61-2.97-2.72-7.51-4.16-4.54-1.45-10.73-1.45h-16.58zm-22.19-59.98h38.77q11.97 0 20.71 2.81 8.75 2.8 14.44 7.84 5.69 5.03 8.46 12.04 2.76 7.02 2.76 15.35 0 8.66-2.89 15.88t-8.66 12.41q-5.78 5.2-14.48 8.09t-20.34 2.89h-16.58v41.99h-22.19zm143.63 97.44v-14.28q-8.83.42-14.85 1.53t-9.65 2.85q-3.63 1.73-5.2 4.04t-1.57 5.03q0 5.37 3.18 7.67 3.18 2.31 8.29 2.31 6.27 0 10.85-2.26 4.58-2.27 8.95-6.89m-43.06-44.47-3.63-6.52q14.6-13.36 35.14-13.36 7.43 0 13.28 2.43 5.86 2.44 9.9 6.77 4.05 4.33 6.15 10.35t2.1 13.2v53.46h-9.24q-2.88 0-4.45-.87-1.57-.86-2.48-3.5l-1.81-6.11q-3.22 2.89-6.27 5.08-3.05 2.18-6.35 3.67-3.3 1.48-7.06 2.27-3.75.78-8.29.78-5.36 0-9.9-1.44-4.54-1.45-7.84-4.34-3.3-2.88-5.11-7.17-1.82-4.29-1.82-9.99 0-3.21 1.08-6.39 1.07-3.18 3.5-6.06 2.44-2.89 6.31-5.45 3.88-2.56 9.53-4.45 5.65-1.9 13.16-3.1 7.51-1.19 17.16-1.44v-4.95q0-8.5-3.63-12.58-3.63-4.09-10.48-4.09-4.95 0-8.2 1.16-3.26 1.16-5.74 2.6-2.47 1.44-4.49 2.6-2.03 1.15-4.5 1.15-2.15 0-3.63-1.11-1.49-1.11-2.39-2.6m100.07-13.2 1.24 9.57q3.96-7.59 9.4-11.92 5.45-4.33 12.87-4.33 5.86 0 9.41 2.55l-1.32 15.27q-.42 1.48-1.2 2.1t-2.1.62q-1.24 0-3.67-.41-2.44-.42-4.75-.42-3.38 0-6.02.99t-4.74 2.85q-2.11 1.86-3.72 4.5t-3.01 6.02v52.14h-20.38v-84.65h11.97q3.13 0 4.37 1.12 1.24 1.11 1.65 4m44.22-5.12h20.46v84.65h-20.46zm23.26-24.66q0 2.64-1.07 4.95t-2.84 4.04q-1.78 1.73-4.17 2.76t-5.12 1.03q-2.64 0-4.99-1.03t-4.08-2.76-2.76-4.04q-1.04-2.31-1.04-4.95 0-2.73 1.04-5.12 1.03-2.39 2.76-4.12 1.73-1.74 4.08-2.77t4.99-1.03q2.73 0 5.12 1.03t4.17 2.77q1.77 1.73 2.84 4.12t1.07 5.12m74.26 33.82-4.62 7.34q-.83 1.32-1.74 1.86t-2.31.54q-1.48 0-3.17-.83-1.69-.82-3.92-1.85-2.23-1.04-5.08-1.86-2.84-.83-6.72-.83-6.02 0-9.45 2.56-3.42 2.56-3.42 6.68 0 2.73 1.77 4.58 1.78 1.86 4.71 3.26t6.64 2.52q3.71 1.11 7.55 2.43 3.83 1.32 7.55 3.01 3.71 1.69 6.64 4.29 2.92 2.6 4.7 6.23 1.77 3.63 1.77 8.75 0 6.1-2.18 11.26-2.19 5.15-6.48 8.91-4.29 3.75-10.6 5.86-6.31 2.1-14.56 2.1-4.38 0-8.54-.78-4.17-.79-8-2.19-3.84-1.4-7.1-3.3t-5.73-4.13l4.7-7.75q.91-1.4 2.15-2.15 1.23-.74 3.13-.74t3.59 1.08q1.69 1.07 3.92 2.3 2.22 1.24 5.24 2.31 3.01 1.08 7.63 1.08 3.63 0 6.23-.87 2.59-.87 4.29-2.27 1.69-1.4 2.47-3.26.79-1.85.79-3.83 0-2.97-1.78-4.87-1.77-1.9-4.7-3.3t-6.68-2.52q-3.76-1.11-7.68-2.43-3.91-1.32-7.67-3.09-3.75-1.78-6.68-4.5t-4.7-6.68q-1.78-3.96-1.78-9.57 0-5.2 2.06-9.9 2.07-4.71 6.07-8.21 4-3.51 9.98-5.61 5.98-2.11 13.82-2.11 8.74 0 15.92 2.89t11.97 7.59"/></svg>