<svg xmlns="http://www.w3.org/2000/svg" width="600" height="400" viewBox="0 0 600 400"><rect width="100%" height="100%" fill="#E0F2F7"/><path fill="#000000" d="m191.655 159.065-4.76 9.02q-.85 1.49-1.81 2.16-.96.68-2.38.68-1.49 0-3.23-1.1t-4.15-2.45q-2.42-1.35-5.65-2.45t-7.63-1.1q-3.97 0-6.96.96-2.98.95-5 2.66-2.03 1.7-3.02 4.08t-.99 5.22q0 3.62 2.02 6.03 2.02 2.42 5.36 4.12 3.34 1.71 7.6 3.05 4.26 1.35 8.73 2.88t8.73 3.55 7.6 5.11 5.36 7.56q2.02 4.48 2.02 10.87 0 6.95-2.37 13.03-2.38 6.07-6.96 10.57-4.58 4.51-11.18 7.1-6.61 2.6-15.13 2.6-4.9 0-9.65-.96-4.76-.96-9.13-2.74-4.36-1.77-8.2-4.26-3.83-2.48-6.81-5.53l5.61-9.16q.71-1 1.84-1.67 1.14-.68 2.42-.68 1.77 0 3.83 1.46 2.06 1.45 4.9 3.23 2.84 1.77 6.64 3.23t9.12 1.46q8.17 0 12.64-3.87t4.47-11.12q0-4.04-2.02-6.6-2.03-2.55-5.36-4.29-3.34-1.74-7.6-2.95t-8.66-2.63-8.66-3.41q-4.26-1.98-7.6-5.18-3.34-3.19-5.36-7.99-2.02-4.79-2.02-11.82 0-5.61 2.23-10.93 2.24-5.33 6.5-9.44 4.26-4.12 10.51-6.61 6.24-2.48 14.34-2.48 9.09 0 16.75 2.84 7.67 2.84 13.07 7.95m54.17 74.19v-12.28q-7.59.36-12.78 1.32-5.18.95-8.3 2.44-3.13 1.5-4.48 3.48-1.35 1.99-1.35 4.33 0 4.62 2.74 6.61 2.73 1.99 7.13 1.99 5.4 0 9.34-1.96 3.94-1.95 7.7-5.93m-37.06-38.26-3.12-5.61q12.56-11.51 30.24-11.51 6.39 0 11.43 2.1 5.04 2.09 8.52 5.82t5.29 8.91 1.81 11.36v46.01h-7.95q-2.48 0-3.83-.75-1.35-.74-2.13-3.01l-1.56-5.26q-2.77 2.49-5.4 4.37t-5.47 3.16-6.07 1.95q-3.23.68-7.13.68-4.62 0-8.52-1.25-3.91-1.24-6.75-3.72-2.84-2.49-4.4-6.18t-1.56-8.59q0-2.77.92-5.5.92-2.74 3.02-5.22 2.09-2.49 5.43-4.69t8.2-3.83q4.86-1.64 11.32-2.67 6.47-1.03 14.77-1.24v-4.26q0-7.31-3.12-10.83-3.13-3.51-9.02-3.51-4.26 0-7.06.99-2.81 1-4.94 2.24t-3.87 2.24q-1.74.99-3.87.99-1.84 0-3.12-.96t-2.06-2.23m93.29 57.08h-17.53v-59.64l-6.32-.99q-2.06-.43-3.3-1.46-1.25-1.03-1.25-2.95v-7.17h10.87v-5.39q0-6.25 1.88-11.22t5.39-8.45q3.52-3.48 8.56-5.33 5.04-1.84 11.36-1.84 5.04 0 9.37 1.35l-.35 8.8q-.07 1-.57 1.6t-1.31.92q-.82.32-1.89.43-1.06.1-2.27.1-3.12 0-5.57.68-2.45.67-4.15 2.34-1.71 1.67-2.6 4.4-.88 2.74-.88 6.78v4.83h18.95v12.5h-18.39zm66.74-18.82v-12.28q-7.59.36-12.78 1.32-5.18.95-8.3 2.44-3.13 1.5-4.48 3.48-1.34 1.99-1.34 4.33 0 4.62 2.73 6.61t7.13 1.99q5.4 0 9.34-1.96 3.94-1.95 7.7-5.93m-37.06-38.26-3.12-5.61q12.57-11.51 30.24-11.51 6.39 0 11.44 2.1 5.04 2.09 8.52 5.82 3.47 3.73 5.28 8.91 1.82 5.18 1.82 11.36v46.01h-7.96q-2.48 0-3.83-.75-1.35-.74-2.13-3.01l-1.56-5.26q-2.77 2.49-5.4 4.37t-5.47 3.16-6.07 1.95q-3.23.68-7.13.68-4.62 0-8.52-1.25-3.91-1.24-6.75-3.72-2.84-2.49-4.4-6.18t-1.56-8.59q0-2.77.92-5.5.93-2.74 3.02-5.22 2.09-2.49 5.43-4.69t8.2-3.83q4.87-1.64 11.33-2.67t14.76-1.24v-4.26q0-7.31-3.12-10.83-3.12-3.51-9.02-3.51-4.26 0-7.06.99-2.81 1-4.94 2.24t-3.87 2.24q-1.73.99-3.86.99-1.85 0-3.13-.96t-2.06-2.23m86.13-11.36 1.06 8.23q3.41-6.53 8.09-10.26 4.69-3.73 11.08-3.73 5.04 0 8.09 2.21l-1.13 13.13q-.36 1.28-1.03 1.81-.68.53-1.81.53-1.07 0-3.16-.35-2.1-.36-4.08-.36-2.91 0-5.19.86-2.27.85-4.08 2.45-1.81 1.59-3.19 3.86-1.39 2.28-2.6 5.19v44.87h-17.53v-72.85h10.29q2.7 0 3.77.96 1.06.96 1.42 3.45m38.05-4.41h17.61v72.85h-17.61zm20.02-21.23q0 2.28-.92 4.26-.92 1.99-2.45 3.48t-3.58 2.38q-2.06.89-4.41.89-2.27 0-4.29-.89-2.03-.89-3.52-2.38t-2.38-3.48q-.88-1.98-.88-4.26 0-2.34.88-4.4.89-2.06 2.38-3.55t3.52-2.38q2.02-.88 4.29-.88 2.35 0 4.41.88 2.05.89 3.58 2.38t2.45 3.55.92 4.4"/></svg>