<svg xmlns="http://www.w3.org/2000/svg" width="600" height="400" viewBox="0 0 600 400"><rect width="100%" height="100%" fill="#E0F2F7"/><path fill="#000000" d="M195.41 143.85v14.26h-28.12v79.01h-17.35v-79.01h-28.12v-14.26zm39.02 26.06q7.36 0 13.39 2.39 6.03 2.38 10.32 6.77t6.61 10.71 2.32 14.12q0 7.87-2.32 14.19t-6.61 10.77-10.32 6.84-13.39 2.39q-7.42 0-13.48-2.39t-10.35-6.84-6.64-10.77q-2.36-6.32-2.36-14.19 0-7.8 2.36-14.12 2.35-6.32 6.64-10.71t10.35-6.77q6.06-2.39 13.48-2.39m0 55.92q8.26 0 12.23-5.54 3.96-5.55 3.96-16.26t-3.96-16.32q-3.97-5.61-12.23-5.61-8.38 0-12.41 5.65-4.04 5.64-4.04 16.28t4.04 16.22q4.03 5.58 12.41 5.58m44.83-84.56h15.93v54.89h2.97q1.61 0 2.55-.42.93-.42 1.9-1.71l16.45-20.31q1.03-1.36 2.29-2.07 1.25-.71 3.25-.71h14.58l-20.58 24.58q-2.19 2.9-4.77 4.45 1.36.97 2.42 2.26t2.03 2.77l22.06 32.12h-14.38q-1.87 0-3.23-.61-1.35-.62-2.25-2.23l-16.9-25.09q-.91-1.48-1.87-1.93-.97-.46-2.91-.46h-3.61v30.32h-15.93zm116.29 29.67h12.77l-36.05 84.37q-.71 1.68-1.84 2.55t-3.45.87h-11.87l12.39-26.58-26.77-61.21h13.99q1.88 0 2.94.91 1.06.9 1.58 2.06l14.06 34.31q.71 1.75 1.19 3.49.49 1.74.94 3.54.58-1.8 1.16-3.58.58-1.77 1.29-3.51l13.29-34.25q.51-1.29 1.71-2.13 1.19-.84 2.67-.84m49.99-1.03q7.35 0 13.38 2.39 6.04 2.38 10.32 6.77 4.29 4.39 6.62 10.71 2.32 6.32 2.32 14.12 0 7.87-2.32 14.19-2.33 6.32-6.62 10.77-4.28 4.45-10.32 6.84-6.03 2.39-13.38 2.39-7.42 0-13.48-2.39t-10.35-6.84-6.65-10.77q-2.35-6.32-2.35-14.19 0-7.8 2.35-14.12 2.36-6.32 6.65-10.71t10.35-6.77q6.06-2.39 13.48-2.39m0 55.92q8.26 0 12.22-5.54 3.97-5.55 3.97-16.26t-3.97-16.32q-3.96-5.61-12.22-5.61-8.38 0-12.42 5.65-4.03 5.64-4.03 16.28t4.03 16.22q4.04 5.58 12.42 5.58"/></svg>